<?xml version="1.0" encoding="UTF-8" standalone="no"?>
<svg
   xmlns:dc="http://purl.org/dc/elements/1.1/"
   xmlns:cc="http://creativecommons.org/ns#"
   xmlns:rdf="http://www.w3.org/1999/02/22-rdf-syntax-ns#"
   xmlns:svg="http://www.w3.org/2000/svg"
   xmlns="http://www.w3.org/2000/svg"
   xmlns:sodipodi="http://sodipodi.sourceforge.net/DTD/sodipodi-0.dtd"
   xmlns:inkscape="http://www.inkscape.org/namespaces/inkscape"
   width="8.5in"
   height="11in"
   viewBox="0 0 215.9 279.4"
   version="1.1"
   id="svg8"
   inkscape:version="1.0.1 (3bc2e813f5, 2020-09-07)"
   sodipodi:docname="drawings.svg">
  <defs
     id="defs2">
    <inkscape:path-effect
       effect="spiro"
       id="path-effect3499"
       is_visible="true"
       lpeversion="1" />
    <inkscape:path-effect
       effect="spiro"
       id="path-effect3497"
       is_visible="true"
       lpeversion="1" />
    <inkscape:path-effect
       effect="spiro"
       id="path-effect3495"
       is_visible="true"
       lpeversion="1" />
    <inkscape:path-effect
       effect="spiro"
       id="path-effect3440"
       is_visible="true"
       lpeversion="1" />
    <inkscape:path-effect
       effect="spiro"
       id="path-effect3436"
       is_visible="true"
       lpeversion="1" />
    <inkscape:path-effect
       effect="spiro"
       id="path-effect3432"
       is_visible="true"
       lpeversion="1" />
    <inkscape:path-effect
       effect="spiro"
       id="path-effect3428"
       is_visible="true"
       lpeversion="1" />
    <inkscape:path-effect
       effect="spiro"
       id="path-effect3426"
       is_visible="true"
       lpeversion="1" />
    <inkscape:path-effect
       effect="spiro"
       id="path-effect3402"
       is_visible="true"
       lpeversion="1" />
    <inkscape:path-effect
       effect="spiro"
       id="path-effect3400"
       is_visible="true"
       lpeversion="1" />
    <inkscape:path-effect
       effect="spiro"
       id="path-effect3376"
       is_visible="true"
       lpeversion="1" />
    <inkscape:path-effect
       effect="spiro"
       id="path-effect3357"
       is_visible="true"
       lpeversion="1" />
    <inkscape:path-effect
       effect="spiro"
       id="path-effect3337"
       is_visible="true"
       lpeversion="1" />
    <inkscape:path-effect
       effect="spiro"
       id="path-effect3333"
       is_visible="true"
       lpeversion="1" />
    <inkscape:path-effect
       effect="spiro"
       id="path-effect3329"
       is_visible="true"
       lpeversion="1" />
    <inkscape:path-effect
       effect="spiro"
       id="path-effect3325"
       is_visible="true"
       lpeversion="1" />
    <inkscape:path-effect
       effect="spiro"
       id="path-effect3317"
       is_visible="true"
       lpeversion="1" />
    <inkscape:path-effect
       effect="spiro"
       id="path-effect3313"
       is_visible="true"
       lpeversion="1" />
    <inkscape:path-effect
       effect="spiro"
       id="path-effect3309"
       is_visible="true"
       lpeversion="1" />
    <inkscape:path-effect
       effect="spiro"
       id="path-effect3305"
       is_visible="true"
       lpeversion="1" />
    <inkscape:path-effect
       effect="spiro"
       id="path-effect3301"
       is_visible="true"
       lpeversion="1" />
    <inkscape:path-effect
       effect="spiro"
       id="path-effect3297"
       is_visible="true"
       lpeversion="1" />
    <inkscape:path-effect
       effect="spiro"
       id="path-effect3293"
       is_visible="true"
       lpeversion="1" />
    <inkscape:path-effect
       effect="spiro"
       id="path-effect3285"
       is_visible="true"
       lpeversion="1" />
    <inkscape:path-effect
       effect="spiro"
       id="path-effect3281"
       is_visible="true"
       lpeversion="1" />
    <inkscape:path-effect
       effect="spiro"
       id="path-effect3277"
       is_visible="true"
       lpeversion="1" />
    <inkscape:path-effect
       effect="spiro"
       id="path-effect3273"
       is_visible="true"
       lpeversion="1" />
    <inkscape:path-effect
       effect="spiro"
       id="path-effect3261"
       is_visible="true"
       lpeversion="1" />
    <inkscape:path-effect
       effect="spiro"
       id="path-effect3257"
       is_visible="true"
       lpeversion="1" />
    <inkscape:path-effect
       effect="spiro"
       id="path-effect3253"
       is_visible="true"
       lpeversion="1" />
    <inkscape:path-effect
       effect="mirror_symmetry"
       start_point="127,56.400203"
       end_point="127,80.399797"
       center_point="127,68.4"
       id="path-effect3229"
       is_visible="true"
       lpeversion="1"
       mode="free"
       discard_orig_path="false"
       fuse_paths="true"
       oposite_fuse="false"
       split_items="false" />
    <inkscape:path-effect
       effect="mirror_symmetry"
       start_point="101.6,56.40022"
       end_point="101.6,80.39978"
       center_point="101.6,68.4"
       id="path-effect3227"
       is_visible="true"
       lpeversion="1"
       mode="free"
       discard_orig_path="false"
       fuse_paths="true"
       oposite_fuse="false"
       split_items="false" />
  </defs>
  <sodipodi:namedview
     id="base"
     pagecolor="#ffffff"
     bordercolor="#666666"
     borderopacity="1.0"
     inkscape:pageopacity="0.0"
     inkscape:pageshadow="2"
     inkscape:zoom="0.98994949"
     inkscape:cx="344.42379"
     inkscape:cy="577.33903"
     inkscape:document-units="in"
     inkscape:current-layer="layer2"
     showgrid="true"
     units="in"
     inkscape:window-width="1368"
     inkscape:window-height="1007"
     inkscape:window-x="543"
     inkscape:window-y="0"
     inkscape:window-maximized="0"
     inkscape:document-rotation="0"
     inkscape:snap-nodes="false"
     inkscape:snap-bbox="true"
     inkscape:snap-bbox-midpoints="true"
     inkscape:snap-global="true"
     inkscape:bbox-paths="false"
     inkscape:bbox-nodes="false"
     inkscape:snap-bbox-edge-midpoints="false">
    <inkscape:grid
       type="xygrid"
       id="grid815"
       units="in"
       spacingx="3.175"
       spacingy="3.175"
       empspacing="4" />
  </sodipodi:namedview>
  <metadata
     id="metadata5">
    <rdf:RDF>
      <cc:Work
         rdf:about="">
        <dc:format>image/svg+xml</dc:format>
        <dc:type
           rdf:resource="http://purl.org/dc/dcmitype/StillImage" />
        <dc:title></dc:title>
      </cc:Work>
    </rdf:RDF>
  </metadata>
  <g
     inkscape:label="Layer 1"
     inkscape:groupmode="layer"
     id="layer1"
     transform="translate(0,-17.6)"
     style="display:inline;opacity:1">
    <path
       style="display:inline;fill:#ff1547;fill-opacity:1;stroke-width:0.0297836"
       d="m 130.76661,132.13864 c -1.4805,0 -2.50551,1.67605 -2.49655,3.07291 0.15165,3.30726 3.03799,6.2535 5.07996,9.14981 2.04195,-2.89631 4.92828,-5.84254 5.07992,-9.14981 0.009,-1.39685 -1.01604,-3.07291 -2.49653,-3.07291 -2.46751,0 -2.58339,2.01642 -2.58339,3.23872 0,-1.22229 -0.1159,-3.23872 -2.58341,-3.23872 z"
       id="path18063-8-7-1-7-29-6-7"
       inkscape:connector-curvature="0" />
    <g
       style="display:inline;fill:#ff1547;fill-opacity:1"
       id="g18077-2-9-0-6"
       transform="matrix(0.02902978,0,0,-0.03055766,126.8183,156.70503)">
      <path
         style="fill:#ff1547;fill-opacity:1;stroke-width:1"
         d="M 225,388.14887 C 191.11894,301.1208 134.95607,232.67098 50.007277,188.33334 134.95598,143.9957 191.11904,75.54587 225,-11.482203 258.88096,75.54587 315.04393,143.9957 399.99272,188.33334 315.04393,232.67098 258.88096,301.1208 225,388.14887 Z"
         id="path18075-0-4-8-5"
         inkscape:connector-curvature="0" />
    </g>
    <path
       style="display:inline;fill:#1a1a3a;fill-opacity:1;stroke-width:0.0297839"
       d="m 120.65001,132.13858 c -1.79537,2.54153 -5.08001,5.01031 -5.08001,7.40391 0,2.06268 1.24783,3.07295 2.08969,3.07295 1.15075,0 1.85391,-0.48945 2.18391,-1.02219 -0.33114,0.94656 -0.78159,1.79797 -1.34172,2.76817 h 2.14813 2.14811 c -0.56015,-0.9702 -1.01058,-1.82161 -1.34172,-2.76817 0.33,0.53274 1.03316,1.02219 2.18391,1.02219 0.84186,0 2.08969,-1.01027 2.08969,-3.07295 0,-2.3936 -3.28463,-4.86238 -5.07999,-7.40391 z"
       id="path6291-5"
       inkscape:connector-curvature="0" />
    <path
       style="display:inline;fill:#1a1a3a;fill-opacity:1;stroke-width:0.0297851"
       d="m 120.65001,144.83853 c -1.19027,0 -2.5258,0.73275 -2.5258,2.65362 0,0.89168 0.37887,1.94361 0.99044,2.65099 -0.43303,-0.16109 -0.93044,-0.24093 -1.4549,-0.24093 -0.87093,0 -2.08975,0.83838 -2.08975,2.34016 0,2.13036 1.24786,3.07335 2.08975,3.07335 1.68381,0 2.42167,-1.0478 2.42167,-1.7463 -0.004,1.53456 0,2.08643 0,3.49205 h 0.56857 0.56859 c 0,-1.40563 0.004,-1.95749 0,-3.49205 0,0.6985 0.73786,1.7463 2.42167,1.7463 0.84189,0 2.08975,-0.94299 2.08975,-3.07335 0,-1.50178 -1.21882,-2.34016 -2.08975,-2.34016 -0.52447,0 -1.02187,0.0798 -1.45491,0.24093 0.61158,-0.70737 0.99045,-1.75932 0.99045,-2.65099 0,-1.92086 -1.33553,-2.65362 -2.52578,-2.65362 z"
       id="path18059-7-3-07-0-3-17"
       inkscape:connector-curvature="0" />
    <path
       inkscape:connector-curvature="0"
       style="display:inline;fill:#1a1a3a;fill-opacity:1;stroke-width:0.00930749"
       d="m 98.425015,138.81498 c -0.56105,0.79423 -1.5875,1.56572 -1.5875,2.31372 0,0.64459 0.38995,0.9603 0.65303,0.9603 0.35961,0 0.57934,-0.15295 0.68247,-0.31944 -0.10348,0.29581 -0.24424,0.56187 -0.41929,0.86506 h 0.67129 0.67129 c -0.17505,-0.30319 -0.31581,-0.56926 -0.41929,-0.86506 0.10313,0.16649 0.32286,0.31944 0.68247,0.31944 0.26308,0 0.653035,-0.31571 0.653035,-0.9603 0,-0.748 -1.026455,-1.51949 -1.587505,-2.31372 z"
       id="path6291-0-8" />
    <g
       style="display:inline;fill:#ff1547;fill-opacity:1"
       id="g18077-2-9-0-9-0"
       transform="matrix(0.00907181,0,0,-0.00954927,102.73386,148.87325)">
      <path
         style="fill:#ff1547;fill-opacity:1;stroke-width:1"
         d="M 225,388.14887 C 191.11894,301.1208 134.95607,232.67098 50.007277,188.33334 134.95598,143.9957 191.11904,75.54587 225,-11.482203 258.88096,75.54587 315.04393,143.9957 399.99272,188.33334 315.04393,232.67098 258.88096,301.1208 225,388.14887 Z"
         id="path18075-0-4-8-2-5"
         inkscape:connector-curvature="0" />
    </g>
    <path
       style="display:inline;fill:#1a1a3a;fill-opacity:1;stroke-width:0.00930783"
       d="m 98.425015,145.16484 c -0.37196,0 -0.7891,0.22913 -0.7891,0.8294 0,0.27865 0.11843,0.60732 0.30955,0.82838 -0.13533,-0.0503 -0.29087,-0.0749 -0.45476,-0.0749 -0.27217,0 -0.65319,0.26192 -0.65319,0.73122 0,0.66574 0.39009,0.96015 0.65319,0.96015 0.31191,0 0.51739,-0.11559 0.63511,-0.25476 v 0.80046 h 0.12143 0.17777 0.29921 v -0.80046 c 0.11771,0.13917 0.32319,0.25476 0.6351,0.25476 0.2631,0 0.653195,-0.29441 0.653195,-0.96015 0,-0.4693 -0.381025,-0.73122 -0.653195,-0.73122 -0.16389,0 -0.31943,0.0246 -0.45475,0.0749 0.19111,-0.22105 0.30954,-0.54972 0.30954,-0.82837 0,-0.60027 -0.41714,-0.82941 -0.7891,-0.8294 z"
       id="path18059-7-3-07-0-3-17-3"
       inkscape:connector-curvature="0" />
    <path
       style="display:inline;fill:#ff1547;fill-opacity:1;stroke-width:0.00928399"
       d="m 103.96989,138.81976 c -0.46149,0 -0.78104,0.52266 -0.77825,0.95808 0.0473,1.03092 0.94686,1.94918 1.58337,2.85201 0.63651,-0.90283 1.53607,-1.82109 1.58337,-2.85201 0.003,-0.43542 -0.31625,-0.95808 -0.77773,-0.95808 h -5.2e-4 c -0.59959,0 -0.79499,0.94048 -0.80512,1.23507 -0.0101,-0.2946 -0.20554,-1.23507 -0.80512,-1.23507 z"
       id="path18063-8-7-1-7-29-6-7-83"
       inkscape:connector-curvature="0" />
    <path
       style="display:inline;opacity:1;fill:#ff1547;fill-opacity:1;stroke-width:0.0584808"
       d="m 121.92744,56.400203 c -2.907,0 -4.91963,3.29096 -4.90203,6.03374 0.29777,6.49387 5.96517,12.27885 9.97459,17.965854 4.00942,-5.687004 9.67682,-11.471984 9.97459,-17.965854 0.0176,-2.74278 -1.99503,-6.03374 -4.90203,-6.03374 -4.845,0 -5.07256,5.23497 -5.07256,7.63497 0,-2.4 -0.22756,-7.63497 -5.07256,-7.63497 z"
       id="path18063-8-7-1-7-29-6-7-5"
       inkscape:connector-curvature="0"
       sodipodi:nodetypes="scccs"
       inkscape:path-effect="#path-effect3229"
       inkscape:original-d="m 121.92744,56.400203 c -2.907,0 -4.91963,3.29096 -4.90203,6.03374 0.29777,6.49387 5.96517,12.27885 9.97459,17.965854 V 64.035173 c 0,-2.4 -0.22756,-7.63497 -5.07256,-7.63497 z"
       transform="translate(50.8,62.799797)" />
    <g
       style="display:inline;opacity:1;fill:#ff1547;fill-opacity:1"
       id="g18077-2-9-0-6-8"
       transform="matrix(0.057,0,0,-0.06,164.97501,167.8998)">
      <path
         style="fill:#ff1547;fill-opacity:1;stroke-width:1"
         d="M 225,388.14887 C 191.11894,301.1208 134.95607,232.67098 50.007277,188.33334 134.95598,143.9957 191.11904,75.54587 225,-11.482203 258.88096,75.54587 315.04393,143.9957 399.99272,188.33334 315.04393,232.67098 258.88096,301.1208 225,388.14887 Z"
         id="path18075-0-4-8-5-1"
         inkscape:connector-curvature="0" />
    </g>
    <path
       style="display:inline;opacity:1;fill:#1a1a3a;fill-opacity:1;stroke-width:0.0584808"
       d="m 101.6,56.40022 c -3.5252,4.9903 -9.97459,9.83776 -9.97459,14.5376 0,4.05004 2.45011,6.03374 4.10311,6.03374 2.25951,0 3.773795,-1.696031 4.42174,-2.742091 -0.204116,1.914338 -1.412965,4.297242 -2.76809,6.170311 h 4.21783 4.21783 c -1.35512,-1.873069 -2.56397,-4.255973 -2.76809,-6.170311 0.64795,1.04606 2.16223,2.742091 4.42174,2.742091 1.653,0 4.10311,-1.9837 4.10311,-6.03374 0,-4.69984 -6.44939,-9.5473 -9.97459,-14.5376 z"
       id="path6291-5-9"
       inkscape:connector-curvature="0"
       sodipodi:nodetypes="csscccc"
       inkscape:path-effect="#path-effect3227"
       inkscape:original-d="m 101.6,56.40022 c -3.5252,4.9903 -9.97459,9.83776 -9.97459,14.5376 0,4.05004 2.45011,6.03374 4.10311,6.03374 2.25951,0 3.773795,-1.696031 4.42174,-2.742091 -0.204116,1.914338 -1.412965,4.297242 -2.76809,6.170311 H 101.6 Z"
       transform="translate(50.8,62.799797)" />
    <path
       style="display:inline;opacity:1;fill:#1a1a3a;fill-opacity:1;stroke-width:0.0585254"
       d="m 152.40002,144.59124 c -2.33878,0 -4.963,1.43982 -4.963,5.21415 0,1.7521 0.74446,3.81906 1.94614,5.20898 -0.85088,-0.31652 -1.82824,-0.47336 -2.85876,-0.47336 -1.71132,0 -4.1062,1.64732 -4.1062,4.59818 0,4.18602 2.45194,6.03891 4.1062,6.03891 3.30854,0 4.75838,-2.05884 4.75838,-3.43133 -0.008,3.01528 0,4.09964 0,6.8616 h 1.11724 1.11724 c 0,-2.76196 0.008,-3.84632 0,-6.8616 0,1.37248 1.44984,3.43133 4.75838,3.43133 1.65426,0 4.1062,-1.85289 4.1062,-6.03891 0,-2.95085 -2.39488,-4.59818 -4.1062,-4.59818 -1.03052,0 -2.00788,0.1568 -2.85876,0.47336 1.20168,-1.38992 1.94614,-3.45688 1.94614,-5.20898 0,-3.77433 -2.62422,-5.21415 -4.963,-5.21415 z"
       id="path18059-7-3-07-0-3-17-7"
       inkscape:connector-curvature="0" />
  </g>
  <g
     inkscape:groupmode="layer"
     id="layer2"
     inkscape:label="Layer 2"
     style="display:inline">
    <rect
       style="display:inline;fill:none;fill-opacity:1;stroke:#76659c;stroke-width:0.5607;stroke-dashoffset:45.0124;paint-order:markers fill stroke;stop-color:#000000"
       id="rect3511"
       width="37.539299"
       height="62.939304"
       x="12.98035"
       y="12.98035" />
    <path
       style="display:inline;fill:#1a1a3a;fill-opacity:1;stroke:none;stroke-width:0.0661458px;stroke-linecap:butt;stroke-linejoin:miter;stroke-opacity:1"
       d="m 117.475,31.35312 c -0.43838,0 -0.79376,0.35538 -0.79376,0.79375 0,0.22101 0.0906,0.47745 0.2363,0.67761 -0.28702,0.10646 -0.56541,0.28673 -0.81481,0.51302 H 114.3 l -0.79375,0.79375 c 0.79375,0.79375 1.5875,3.175 1.5875,3.96875 h -1.5875 c -0.79376,0 -1.58751,0 -1.58751,0.79375 0,0.79375 0.79375,0.79375 1.58751,0.79375 1.5875,0 1.5875,3.175 1.5875,4.7625 0,1.5875 -0.79375,4.7625 -2.38125,4.7625 -0.79375,0 -1.5875,0.79375 -1.5875,1.5875 h 6.35 6.35 c 0,-0.79375 -0.79375,-1.5875 -1.5875,-1.5875 -1.58751,0 -2.38125,-3.175 -2.38125,-4.7625 0,-1.5875 0,-4.7625 1.5875,-4.7625 0.79375,0 1.5875,0 1.5875,-0.79375 0,-0.79375 -0.79375,-0.79375 -1.5875,-0.79375 h -1.5875 c 0,-0.79375 0.79375,-3.175 1.5875,-3.96875 L 120.65,33.3375 h -1.80274 c -0.2494,-0.22629 -0.52779,-0.40656 -0.8148,-0.51302 0.14574,-0.20016 0.23629,-0.4566 0.23629,-0.67761 0,-0.43837 -0.35538,-0.79375 -0.79375,-0.79375 z"
       id="path2152-1-9-0"
       inkscape:connector-curvature="0" />
    <path
       style="display:inline;fill:#1a1a3a;fill-opacity:1;stroke:none;stroke-width:0.0661458px;stroke-linecap:butt;stroke-linejoin:miter;stroke-opacity:1"
       d="m 135.33437,33.33749 0.79375,1.12448 c 2.57915,0.0369 3.96875,7.23881 3.96875,9.98802 0,1.58751 -1.19062,1.58751 -1.19062,3.17501 0,0.79374 0.79375,1.5875 2.38125,1.5875 0.79375,0 1.5875,0.79375 1.5875,1.5875 h -6.35 -6.35 c 0,-0.79375 0.79375,-1.5875 1.58751,-1.5875 1.5875,0 2.38124,-0.79375 2.38124,-1.5875 0,-1.5875 -1.19062,-1.5875 -1.19062,-3.17501 0,-0.79374 2.23231,-5.312 2.73277,-6.77736 l -2.03023,0.0846 c -0.11403,0.25954 -1.05098,1.07491 -1.48091,0.33021 -0.70256,-1.21686 2.36587,-3.62549 2.36587,-3.62549 v -1.12448 z"
       id="path4586-5-7-0-0-1-9-2-8"
       inkscape:connector-curvature="0"
       sodipodi:nodetypes="ccccscccscscccccc" />
    <path
       style="display:inline;fill:#1a1a3a;fill-opacity:1;stroke:none;stroke-width:0.0661458px;stroke-linecap:butt;stroke-linejoin:miter;stroke-opacity:1"
       d="m 97.631255,29.36876 c 0,0 0.37417,1.21333 0,1.5875 -0.18709,0.18709 -0.54931,0.10125 -0.79375,0 -0.3457,-0.1432 -0.79375,-0.79374 -0.79375,-0.79374 v 3.175 c 0,0 0.44804,-0.65056 0.79375,-0.79375 0.24444,-0.10125 0.60666,-0.18709 0.79375,0 0.18708,0.18708 0,0.79375 0,0.79375 h -1.5875 -0.79376 -0.79375 l 1.58751,4.7625 h -1.58751 c -0.79377,0 -1.5875,0 -1.5875,0.79374 0,0.79375 0.79375,0.79375 1.5875,0.79375 1.58751,0 1.58751,3.175 1.58751,4.76249 0,1.5875 -0.79376,4.7625 -2.38125,4.7625 -0.79375,0 -1.5875,0.79375 -1.5875,1.5875 h 6.34999 6.350005 c 0,-0.79375 -0.79377,-1.5875 -1.5875,-1.5875 -1.58752,0 -2.38125,-3.175 -2.38125,-4.7625 0,-1.5875 0,-4.76249 1.58749,-4.76249 0.79376,0 1.58752,0 1.58752,-0.79375 0,-0.79374 -0.79375,-0.79374 -1.58752,-0.79374 h -1.58749 l 1.58749,-4.7625 H 101.6 100.80624 99.218745 c 0,0 -0.18709,-0.60667 0,-0.79375 0.18708,-0.18709 0.5493,-0.10125 0.793765,0 0.34567,0.14319 0.79372,0.79375 0.79372,0.79375 v -3.175 c 0,0 -0.44805,0.65055 -0.79372,0.79374 -0.244465,0.10125 -0.606685,0.18709 -0.793765,0 -0.37418,-0.37417 0,-1.5875 0,-1.5875 h -0.79375 z"
       id="path4586-5-7-3-5-0-6-8-0-4"
       inkscape:connector-curvature="0" />
  </g>
</svg>
