<?xml version="1.0" encoding="UTF-8" standalone="no"?>
<svg
   xmlns:dc="http://purl.org/dc/elements/1.1/"
   xmlns:cc="http://creativecommons.org/ns#"
   xmlns:rdf="http://www.w3.org/1999/02/22-rdf-syntax-ns#"
   xmlns:svg="http://www.w3.org/2000/svg"
   xmlns="http://www.w3.org/2000/svg"
   xmlns:sodipodi="http://sodipodi.sourceforge.net/DTD/sodipodi-0.dtd"
   xmlns:inkscape="http://www.inkscape.org/namespaces/inkscape"
   width="8.5in"
   height="11in"
   viewBox="0 0 215.9 279.4"
   version="1.1"
   id="svg8"
   inkscape:version="1.0.1 (3bc2e813f5, 2020-09-07)"
   sodipodi:docname="drawings.svg">
  <defs
     id="defs2">
    <inkscape:path-effect
       effect="mirror_symmetry"
       start_point="71.834375,23.326289"
       end_point="71.834375,50.8"
       center_point="71.834375,37.063144"
       id="path-effect1219"
       is_visible="true"
       lpeversion="1"
       mode="free"
       discard_orig_path="false"
       fuse_paths="false"
       oposite_fuse="false"
       split_items="false" />
    <inkscape:path-effect
       effect="mirror_symmetry"
       start_point="74.215625,66.18874"
       end_point="74.215625,88.9"
       center_point="74.215625,77.54437"
       id="path-effect1200"
       is_visible="true"
       lpeversion="1"
       mode="free"
       discard_orig_path="false"
       fuse_paths="false"
       oposite_fuse="false"
       split_items="false" />
    <inkscape:path-effect
       effect="mirror_symmetry"
       start_point="71.834375,23.326289"
       end_point="71.834375,50.8"
       center_point="71.834375,37.063144"
       id="path-effect1181"
       is_visible="true"
       lpeversion="1"
       mode="free"
       discard_orig_path="false"
       fuse_paths="false"
       oposite_fuse="false"
       split_items="false" />
    <inkscape:path-effect
       effect="mirror_symmetry"
       start_point="74.215625,66.18874"
       end_point="74.215625,88.9"
       center_point="74.215625,77.54437"
       id="path-effect1179"
       is_visible="true"
       lpeversion="1"
       mode="free"
       discard_orig_path="false"
       fuse_paths="false"
       oposite_fuse="false"
       split_items="false" />
    <inkscape:path-effect
       effect="spiro"
       id="path-effect3499"
       is_visible="true"
       lpeversion="1" />
    <inkscape:path-effect
       effect="spiro"
       id="path-effect3497"
       is_visible="true"
       lpeversion="1" />
    <inkscape:path-effect
       effect="spiro"
       id="path-effect3495"
       is_visible="true"
       lpeversion="1" />
    <inkscape:path-effect
       effect="spiro"
       id="path-effect3440"
       is_visible="true"
       lpeversion="1" />
    <inkscape:path-effect
       effect="spiro"
       id="path-effect3436"
       is_visible="true"
       lpeversion="1" />
    <inkscape:path-effect
       effect="spiro"
       id="path-effect3432"
       is_visible="true"
       lpeversion="1" />
    <inkscape:path-effect
       effect="spiro"
       id="path-effect3428"
       is_visible="true"
       lpeversion="1" />
    <inkscape:path-effect
       effect="spiro"
       id="path-effect3426"
       is_visible="true"
       lpeversion="1" />
    <inkscape:path-effect
       effect="spiro"
       id="path-effect3402"
       is_visible="true"
       lpeversion="1" />
    <inkscape:path-effect
       effect="spiro"
       id="path-effect3400"
       is_visible="true"
       lpeversion="1" />
    <inkscape:path-effect
       effect="spiro"
       id="path-effect3376"
       is_visible="true"
       lpeversion="1" />
    <inkscape:path-effect
       effect="spiro"
       id="path-effect3357"
       is_visible="true"
       lpeversion="1" />
    <inkscape:path-effect
       effect="spiro"
       id="path-effect3337"
       is_visible="true"
       lpeversion="1" />
    <inkscape:path-effect
       effect="spiro"
       id="path-effect3333"
       is_visible="true"
       lpeversion="1" />
    <inkscape:path-effect
       effect="spiro"
       id="path-effect3329"
       is_visible="true"
       lpeversion="1" />
    <inkscape:path-effect
       effect="spiro"
       id="path-effect3325"
       is_visible="true"
       lpeversion="1" />
    <inkscape:path-effect
       effect="spiro"
       id="path-effect3317"
       is_visible="true"
       lpeversion="1" />
    <inkscape:path-effect
       effect="spiro"
       id="path-effect3313"
       is_visible="true"
       lpeversion="1" />
    <inkscape:path-effect
       effect="spiro"
       id="path-effect3309"
       is_visible="true"
       lpeversion="1" />
    <inkscape:path-effect
       effect="spiro"
       id="path-effect3305"
       is_visible="true"
       lpeversion="1" />
    <inkscape:path-effect
       effect="spiro"
       id="path-effect3301"
       is_visible="true"
       lpeversion="1" />
    <inkscape:path-effect
       effect="spiro"
       id="path-effect3297"
       is_visible="true"
       lpeversion="1" />
    <inkscape:path-effect
       effect="spiro"
       id="path-effect3293"
       is_visible="true"
       lpeversion="1" />
    <inkscape:path-effect
       effect="spiro"
       id="path-effect3285"
       is_visible="true"
       lpeversion="1" />
    <inkscape:path-effect
       effect="spiro"
       id="path-effect3281"
       is_visible="true"
       lpeversion="1" />
    <inkscape:path-effect
       effect="spiro"
       id="path-effect3277"
       is_visible="true"
       lpeversion="1" />
    <inkscape:path-effect
       effect="spiro"
       id="path-effect3273"
       is_visible="true"
       lpeversion="1" />
    <inkscape:path-effect
       effect="spiro"
       id="path-effect3261"
       is_visible="true"
       lpeversion="1" />
    <inkscape:path-effect
       effect="spiro"
       id="path-effect3257"
       is_visible="true"
       lpeversion="1" />
    <inkscape:path-effect
       effect="spiro"
       id="path-effect3253"
       is_visible="true"
       lpeversion="1" />
    <inkscape:path-effect
       effect="mirror_symmetry"
       start_point="127,56.400203"
       end_point="127,80.399797"
       center_point="127,68.4"
       id="path-effect3229"
       is_visible="true"
       lpeversion="1"
       mode="free"
       discard_orig_path="false"
       fuse_paths="true"
       oposite_fuse="false"
       split_items="false" />
    <inkscape:path-effect
       effect="mirror_symmetry"
       start_point="101.6,56.40022"
       end_point="101.6,80.39978"
       center_point="101.6,68.4"
       id="path-effect3227"
       is_visible="true"
       lpeversion="1"
       mode="free"
       discard_orig_path="false"
       fuse_paths="true"
       oposite_fuse="false"
       split_items="false" />
  </defs>
  <sodipodi:namedview
     id="base"
     pagecolor="#ffffff"
     bordercolor="#666666"
     borderopacity="1.0"
     inkscape:pageopacity="0.0"
     inkscape:pageshadow="2"
     inkscape:zoom="2.0000001"
     inkscape:cx="440.0341"
     inkscape:cy="649.34731"
     inkscape:document-units="in"
     inkscape:current-layer="layer1"
     showgrid="true"
     units="in"
     inkscape:window-width="1368"
     inkscape:window-height="1007"
     inkscape:window-x="536"
     inkscape:window-y="0"
     inkscape:window-maximized="0"
     inkscape:document-rotation="0"
     inkscape:snap-nodes="false"
     inkscape:snap-bbox="true"
     inkscape:snap-bbox-midpoints="true"
     inkscape:snap-global="true"
     inkscape:bbox-paths="false"
     inkscape:bbox-nodes="false"
     inkscape:snap-bbox-edge-midpoints="false"
     inkscape:snap-smooth-nodes="false"
     inkscape:snap-midpoints="false"
     inkscape:snap-intersection-paths="false"
     inkscape:snap-grids="true"
     inkscape:object-nodes="false"
     showguides="true">
    <inkscape:grid
       type="xygrid"
       id="grid815"
       units="in"
       spacingx="3.175"
       spacingy="3.175"
       empspacing="4" />
  </sodipodi:namedview>
  <metadata
     id="metadata5">
    <rdf:RDF>
      <cc:Work
         rdf:about="">
        <dc:format>image/svg+xml</dc:format>
        <dc:type
           rdf:resource="http://purl.org/dc/dcmitype/StillImage" />
        <dc:title />
      </cc:Work>
    </rdf:RDF>
  </metadata>
  <g
     inkscape:label="Layer 1"
     inkscape:groupmode="layer"
     id="layer1"
     transform="translate(0,-17.6)"
     style="display:inline;opacity:1">
    <path
       style="display:inline;fill:#ff1569;fill-opacity:1;stroke-width:0.0309466"
       d="m 133.84074,182.7 c -1.53831,0 -2.60335,1.7415 -2.59404,3.1929 0.15757,3.43641 3.15662,6.49769 5.27833,9.5071 2.12168,-3.00941 5.12072,-6.07068 5.27828,-9.5071 0.009,-1.45139 -1.05571,-3.1929 -2.59401,-3.1929 -2.56387,0 -2.68427,2.09516 -2.68427,3.36519 0,-1.27002 -0.12043,-3.36519 -2.68429,-3.36519 z"
       id="path18063-8-7-1-7-29-6-7"
       inkscape:connector-curvature="0"
       inkscape:export-xdpi="300"
       inkscape:export-ydpi="300" />
    <g
       style="display:inline;fill:#ff1569;fill-opacity:1"
       id="g18077-2-9-0-6"
       transform="matrix(0.03019035,0,0,-0.03177931,129.73217,210.9101)"
       inkscape:export-xdpi="300"
       inkscape:export-ydpi="300">
      <path
         style="fill:#ff1569;fill-opacity:1;stroke-width:1"
         d="M 225,388.14887 C 191.11894,301.1208 134.95607,232.67098 50.007277,188.33334 134.95598,143.9957 191.11904,75.54587 225,-11.482203 258.88096,75.54587 315.04393,143.9957 399.99272,188.33334 315.04393,232.67098 258.88096,301.1208 225,388.14887 Z"
         id="path18075-0-4-8-5"
         inkscape:connector-curvature="0" />
    </g>
    <path
       style="display:inline;fill:#1a1a5e;fill-opacity:1;stroke-width:0.0309466"
       d="m 111.12501,182.7 c -1.86546,2.64075 -5.27832,5.20591 -5.27832,7.69295 0,2.1432 1.29655,3.19292 2.17127,3.19292 1.19567,0 1.92628,-0.50857 2.26916,-1.0621 -0.34407,0.98351 -0.8121,1.86816 -1.39409,2.87623 h 2.23198 2.23197 c -0.58201,-1.00807 -1.05003,-1.89272 -1.3941,-2.87623 0.34289,0.55353 1.0735,1.0621 2.26918,1.0621 0.87472,0 2.17126,-1.04972 2.17126,-3.19292 0,-2.48704 -3.41285,-5.0522 -5.27831,-7.69295 z"
       id="path6291-5"
       inkscape:connector-curvature="0"
       inkscape:export-xdpi="300"
       inkscape:export-ydpi="300" />
    <path
       style="display:inline;fill:#1a1a5e;fill-opacity:1;stroke-width:0.0309476"
       d="m 111.12501,198.575 c -1.23672,0 -2.62438,0.76135 -2.62438,2.75719 0,0.92648 0.39366,2.01947 1.0291,2.75446 -0.44993,-0.16738 -0.96676,-0.25034 -1.51169,-0.25034 -0.90492,0 -2.17131,0.87111 -2.17131,2.4315 0,2.21351 1.29656,3.1933 2.17131,3.1933 1.74953,0 2.51619,-1.08869 2.51619,-1.81445 -0.004,1.59445 0,2.16786 0,3.62834 h 0.59076 0.59078 c 0,-1.46049 0.004,-2.03389 0,-3.62834 0,0.72576 0.76666,1.81445 2.51619,1.81445 0.87475,0 2.17131,-0.97979 2.17131,-3.1933 0,-1.56039 -1.26639,-2.4315 -2.17131,-2.4315 -0.54494,0 -1.06175,0.0829 -1.51169,0.25034 0.63545,-0.73498 1.0291,-1.82799 1.0291,-2.75446 0,-1.99583 -1.38765,-2.75719 -2.62436,-2.75719 z"
       id="path18059-7-3-07-0-3-17"
       inkscape:connector-curvature="0"
       inkscape:export-xdpi="300"
       inkscape:export-ydpi="300" />
    <path
       inkscape:connector-curvature="0"
       style="display:inline;fill:#1a1a5e;fill-opacity:1;stroke-width:0.0154733"
       d="m 111.12501,214.45 c -0.93273,1.32038 -2.63916,2.60295 -2.63916,3.84647 0,1.0716 0.64828,1.59646 1.08564,1.59646 0.59783,0 0.96313,-0.25427 1.13458,-0.53106 -0.17204,0.49177 -0.40604,0.93409 -0.69706,1.43813 h 1.116 1.11599 c -0.29101,-0.50404 -0.52502,-0.94637 -0.69705,-1.43813 0.17145,0.27679 0.53674,0.53106 1.13458,0.53106 0.43736,0 1.08563,-0.52486 1.08563,-1.59646 0,-1.24352 -1.70643,-2.52609 -2.63915,-3.84647 z"
       id="path6291-0-8"
       inkscape:export-xdpi="300"
       inkscape:export-ydpi="300" />
    <g
       style="display:inline;fill:#ff1569;fill-opacity:1"
       id="g18077-2-9-0-9-0"
       transform="matrix(0.01509518,0,0,-0.01588966,133.12857,230.14255)"
       inkscape:export-xdpi="300"
       inkscape:export-ydpi="300">
      <path
         style="fill:#ff1569;fill-opacity:1;stroke-width:1"
         d="M 225,388.14887 C 191.11894,301.1208 134.95607,232.67098 50.007277,188.33334 134.95598,143.9957 191.11904,75.54587 225,-11.482203 258.88096,75.54587 315.04393,143.9957 399.99272,188.33334 315.04393,232.67098 258.88096,301.1208 225,388.14887 Z"
         id="path18075-0-4-8-2-5"
         inkscape:connector-curvature="0" />
    </g>
    <path
       style="display:inline;fill:#1a1a5e;fill-opacity:1;stroke-width:0.0154727"
       d="m 111.125,223.975 c -0.61832,0 -1.31175,0.38089 -1.31175,1.37874 0,0.4632 0.19687,1.00955 0.51458,1.37704 -0.22496,-0.0836 -0.48352,-0.12451 -0.75596,-0.12451 -0.45244,0 -1.08582,0.4354 -1.08582,1.21553 0,1.10668 0.64846,1.59608 1.08582,1.59608 0.51849,0 0.86007,-0.19215 1.05576,-0.42349 v 1.33061 h 0.20186 0.29551 0.49738 v -1.33061 c 0.19568,0.23134 0.53725,0.42349 1.05575,0.42349 0.43736,0 1.08582,-0.4894 1.08582,-1.59608 0,-0.78013 -0.63338,-1.21553 -1.08582,-1.21553 -0.27244,0 -0.531,0.0409 -0.75594,0.12451 0.31768,-0.36746 0.51455,-0.91382 0.51455,-1.37703 0,-0.99784 -0.69342,-1.37875 -1.31174,-1.37873 z"
       id="path18059-7-3-07-0-3-17-3"
       inkscape:connector-curvature="0"
       inkscape:export-xdpi="300"
       inkscape:export-ydpi="300" />
    <path
       style="display:inline;fill:#ff1569;fill-opacity:1;stroke-width:0.015473"
       d="m 135.18315,214.45 c -0.76912,0 -1.30169,0.87108 -1.29705,1.59675 0.0788,1.71817 1.57806,3.24857 2.63889,4.75325 1.06083,-1.50468 2.56006,-3.03508 2.63889,-4.75325 0.005,-0.72567 -0.52706,-1.59675 -1.29618,-1.59675 h -8.8e-4 c -0.99928,0 -1.32495,1.56743 -1.34182,2.0584 -0.0168,-0.49099 -0.34256,-2.0584 -1.34185,-2.0584 z"
       id="path18063-8-7-1-7-29-6-7-83"
       inkscape:connector-curvature="0"
       inkscape:export-xdpi="300"
       inkscape:export-ydpi="300" />
    <path
       style="display:inline;opacity:1;fill:#ff1569;fill-opacity:1;stroke-width:0.0584808"
       d="m 121.92744,56.400203 c -2.907,0 -4.91963,3.29096 -4.90203,6.03374 0.29777,6.49387 5.96517,12.27885 9.97459,17.965854 4.00942,-5.687004 9.67682,-11.471984 9.97459,-17.965854 0.0176,-2.74278 -1.99503,-6.03374 -4.90203,-6.03374 -4.845,0 -5.07256,5.23497 -5.07256,7.63497 0,-2.4 -0.22756,-7.63497 -5.07256,-7.63497 z"
       id="path18063-8-7-1-7-29-6-7-5"
       inkscape:connector-curvature="0"
       sodipodi:nodetypes="scccs"
       inkscape:path-effect="#path-effect3229"
       inkscape:original-d="m 121.92744,56.400203 c -2.907,0 -4.91963,3.29096 -4.90203,6.03374 0.29777,6.49387 5.96517,12.27885 9.97459,17.965854 V 64.035173 c 0,-2.4 -0.22756,-7.63497 -5.07256,-7.63497 z"
       transform="translate(9.525,76.2)"
       inkscape:export-xdpi="300"
       inkscape:export-ydpi="300" />
    <g
       style="display:inline;opacity:1;fill:#ff1569;fill-opacity:1"
       id="g18077-2-9-0-6-8"
       transform="matrix(0.057,0,0,-0.06,123.70001,181.3)"
       inkscape:export-xdpi="300"
       inkscape:export-ydpi="300">
      <path
         style="fill:#ff1569;fill-opacity:1;stroke-width:1"
         d="M 225,388.14887 C 191.11894,301.1208 134.95607,232.67098 50.007277,188.33334 134.95598,143.9957 191.11904,75.54587 225,-11.482203 258.88096,75.54587 315.04393,143.9957 399.99272,188.33334 315.04393,232.67098 258.88096,301.1208 225,388.14887 Z"
         id="path18075-0-4-8-5-1"
         inkscape:connector-curvature="0" />
    </g>
    <path
       style="display:inline;opacity:1;fill:#1a1a5e;fill-opacity:1;stroke-width:0.0584808"
       d="m 101.6,56.40022 c -3.5252,4.9903 -9.97459,9.83776 -9.97459,14.5376 0,4.05004 2.45011,6.03374 4.10311,6.03374 2.25951,0 3.773795,-1.696031 4.42174,-2.742091 -0.204116,1.914338 -1.412965,4.297242 -2.76809,6.170311 h 4.21783 4.21783 c -1.35512,-1.873069 -2.56397,-4.255973 -2.76809,-6.170311 0.64795,1.04606 2.16223,2.742091 4.42174,2.742091 1.653,0 4.10311,-1.9837 4.10311,-6.03374 0,-4.69984 -6.44939,-9.5473 -9.97459,-14.5376 z"
       id="path6291-5-9"
       inkscape:connector-curvature="0"
       sodipodi:nodetypes="csscccc"
       inkscape:path-effect="#path-effect3227"
       inkscape:original-d="m 101.6,56.40022 c -3.5252,4.9903 -9.97459,9.83776 -9.97459,14.5376 0,4.05004 2.45011,6.03374 4.10311,6.03374 2.25951,0 3.773795,-1.696031 4.42174,-2.742091 -0.204116,1.914338 -1.412965,4.297242 -2.76809,6.170311 H 101.6 Z"
       transform="translate(9.525,76.2)"
       inkscape:export-xdpi="300"
       inkscape:export-ydpi="300" />
    <path
       style="display:inline;opacity:1;fill:#1a1a5e;fill-opacity:1;stroke-width:0.0585254"
       d="m 111.12502,157.99144 c -2.33878,0 -4.963,1.43982 -4.963,5.21415 0,1.7521 0.74446,3.81906 1.94614,5.20898 -0.85088,-0.31652 -1.82824,-0.47336 -2.85876,-0.47336 -1.71132,0 -4.1062,1.64732 -4.1062,4.59818 0,4.18602 2.45194,6.03891 4.1062,6.03891 3.30854,0 4.75838,-2.05884 4.75838,-3.43133 -0.008,3.01528 0,4.09964 0,6.8616 h 1.11724 1.11724 c 0,-2.76196 0.008,-3.84632 0,-6.8616 0,1.37248 1.44984,3.43133 4.75838,3.43133 1.65426,0 4.1062,-1.85289 4.1062,-6.03891 0,-2.95085 -2.39488,-4.59818 -4.1062,-4.59818 -1.03052,0 -2.00788,0.1568 -2.85876,0.47336 1.20168,-1.38992 1.94614,-3.45688 1.94614,-5.20898 0,-3.77433 -2.62422,-5.21415 -4.963,-5.21415 z"
       id="path18059-7-3-07-0-3-17-7"
       inkscape:connector-curvature="0"
       inkscape:export-xdpi="300"
       inkscape:export-ydpi="300" />
  </g>
  <g
     inkscape:groupmode="layer"
     id="layer2"
     inkscape:label="Layer 2"
     style="display:inline">
    <path
       id="path1062-1-1"
       style="display:inline;fill:#1a1a5e;fill-opacity:1;stroke:none;stroke-width:0.28575;stroke-dashoffset:45.0124;paint-order:markers fill stroke;stop-color:#000000"
       d="m 67.817945,23.326294 c -1.964865,4.05e-4 -3.97995,1.889459 -5.1336,4.912491 -0.120938,-0.04016 -0.247539,-0.06064 -0.37497,-0.06066 -0.657564,0 -1.190625,0.533061 -1.190625,1.190625 0,0.657564 0.533061,1.190625 1.190625,1.190625 0.657564,0 1.190625,-0.533061 1.190625,-1.190625 -2.6e-5,-0.336051 -0.142063,-0.656443 -0.391065,-0.882117 3.09915,-3.033535 5.834775,-1.251069 6.34419,3.263367 H 65.88125 c -1.190625,0 -2.38125,0 -2.38125,1.190625 0,1.190625 1.190625,1.190625 2.38125,1.190625 2.38125,0 2.38125,4.7625 2.38125,7.14375 0,2.38125 -1.190625,7.14375 -3.571875,7.14375 -1.190625,0 -2.38125,1.190625 -2.38125,2.38125 h 9.525 V 26.9875 c -1.03608,-2.553999 -2.51151,-3.661521 -4.01643,-3.661211 z m 8.03286,0 c 1.964865,4.05e-4 3.97995,1.889459 5.1336,4.912491 0.120938,-0.04016 0.247539,-0.06064 0.37497,-0.06066 0.657564,0 1.190625,0.533061 1.190625,1.190625 0,0.657564 -0.533061,1.190625 -1.190625,1.190625 -0.657564,0 -1.190625,-0.533061 -1.190625,-1.190625 2.6e-5,-0.336051 0.142063,-0.656443 0.391065,-0.882117 C 77.460665,25.453098 74.72504,27.235564 74.215625,31.75 H 77.7875 c 1.190625,0 2.38125,0 2.38125,1.190625 0,1.190625 -1.190625,1.190625 -2.38125,1.190625 -2.38125,0 -2.38125,4.7625 -2.38125,7.14375 0,2.38125 1.190625,7.14375 3.571875,7.14375 1.190625,0 2.38125,1.190625 2.38125,2.38125 h -9.525 V 26.9875 c 1.03608,-2.553999 2.51151,-3.661521 4.01643,-3.661211 z"
       sodipodi:nodetypes="sccsscccssssscccss"
       inkscape:path-effect="#path-effect1181"
       inkscape:original-d="m 67.817945,23.326294 c -1.964865,4.05e-4 -3.97995,1.889459 -5.1336,4.912491 -0.120938,-0.04016 -0.247539,-0.06064 -0.37497,-0.06066 -0.657564,0 -1.190625,0.533061 -1.190625,1.190625 0,0.657564 0.533061,1.190625 1.190625,1.190625 0.657564,0 1.190625,-0.533061 1.190625,-1.190625 -2.6e-5,-0.336051 -0.142063,-0.656443 -0.391065,-0.882117 3.09915,-3.033535 5.834775,-1.251069 6.34419,3.263367 H 65.88125 c -1.190625,0 -2.38125,0 -2.38125,1.190625 0,1.190625 1.190625,1.190625 2.38125,1.190625 2.38125,0 2.38125,4.7625 2.38125,7.14375 0,2.38125 -1.190625,7.14375 -3.571875,7.14375 -1.190625,0 -2.38125,1.190625 -2.38125,2.38125 h 9.525 c 0,-12.7 0,-12.7 0,-23.8125 -1.03608,-2.553999 -2.51151,-3.661521 -4.01643,-3.661211 z"
       transform="translate(17.065625)"
       inkscape:export-xdpi="300"
       inkscape:export-ydpi="300" />
    <rect
       style="display:inline;fill:none;fill-opacity:1;stroke:#76659c;stroke-width:0.5607;stroke-dashoffset:45.0124;paint-order:markers fill stroke;stop-color:#000000"
       id="rect3511"
       width="37.539299"
       height="62.939304"
       x="12.98035"
       y="12.98035" />
    <path
       style="display:inline;fill:#1a1a5e;fill-opacity:1;stroke:none;stroke-width:0.0992187px;stroke-linecap:butt;stroke-linejoin:miter;stroke-opacity:1"
       d="m 136.525,21.629681 c -0.65758,0 -1.19064,0.533069 -1.19064,1.190625 0,0.331515 0.1359,0.716175 0.35445,1.016415 -0.43054,0.15969 -0.84812,0.430095 -1.22222,0.76953 h -2.70409 l -1.19063,1.190625 c 1.19063,1.190625 2.38126,4.7625 2.38126,5.953125 h -2.38126 c -1.19064,0 -2.38126,0 -2.38126,1.190624 0,1.190625 1.19063,1.190625 2.38126,1.190625 2.38126,0 2.38126,4.7625 2.38126,7.14375 0,2.38125 -1.19063,7.14375 -3.57188,7.14375 C 128.19063,48.41875 127,49.609375 127,50.8 h 9.525 9.525 c 0,-1.190624 -1.19063,-2.38125 -2.38125,-2.38125 -2.38127,0 -3.57188,-4.7625 -3.57188,-7.14375 0,-2.38125 0,-7.14375 2.38125,-7.14375 1.19063,0 2.38125,0 2.38125,-1.190625 0,-1.190624 -1.19062,-1.190624 -2.38125,-1.190624 h -2.38125 c 0,-1.190625 1.19063,-4.7625 2.38125,-5.953125 l -1.19063,-1.190625 h -2.7041 c -0.3741,-0.339435 -0.79169,-0.60984 -1.22221,-0.76953 0.21862,-0.30024 0.35444,-0.6849 0.35444,-1.016415 0,-0.657555 -0.53307,-1.190625 -1.19062,-1.190625 z"
       id="path2152-1-9-0"
       inkscape:connector-curvature="0"
       inkscape:export-xdpi="300"
       inkscape:export-ydpi="300" />
    <path
       style="display:inline;fill:#1a1a5e;fill-opacity:1;stroke:none;stroke-width:0.0992187px;stroke-linecap:butt;stroke-linejoin:miter;stroke-opacity:1"
       d="m 160.13907,24.606235 1.19062,1.68672 c 3.86871,0.05535 5.95312,10.858215 5.95312,14.98203 0,2.381265 -1.78594,2.381265 -1.78594,4.762515 0,1.19061 1.19063,2.38125 3.57188,2.38125 1.19062,0 2.38125,1.190625 2.38125,2.38125 h -9.525 -9.525 c 0,-1.190625 1.19062,-2.38125 2.38127,-2.38125 2.38125,0 3.57186,-1.190625 3.57186,-2.38125 0,-2.38125 -1.78593,-2.38125 -1.78593,-4.762515 0,-1.19061 3.34846,-7.968001 4.09915,-10.16604 l -3.04534,0.1269 c -0.17105,0.389309 -1.57647,1.612364 -2.22137,0.495314 -1.05384,-1.825289 3.54881,-5.438234 3.54881,-5.438234 v -1.686721 z"
       id="path4586-5-7-0-0-1-9-2-8"
       inkscape:connector-curvature="0"
       sodipodi:nodetypes="ccccscccscscccccc"
       inkscape:export-xdpi="300"
       inkscape:export-ydpi="300" />
    <path
       style="display:inline;fill:#1a1a5e;fill-opacity:1;stroke:none;stroke-width:0.0992187px;stroke-linecap:butt;stroke-linejoin:miter;stroke-opacity:1"
       d="m 113.10938,18.65314 c 0,0 0.56125,1.819994 0,2.38125 -0.28064,0.280635 -0.82397,0.151875 -1.19063,0 -0.51855,-0.2148 -1.19062,-1.19061 -1.19062,-1.19061 v 4.7625 c 0,0 0.67206,-0.97584 1.19062,-1.190625 0.36666,-0.151875 0.90999,-0.280635 1.19063,0 0.28062,0.28062 0,1.190625 0,1.190625 h -2.38125 -1.19064 -1.19063 l 2.38127,7.14375 h -2.38127 c -1.19065,0 -2.38125,0 -2.38125,1.19061 0,1.190624 1.19063,1.190624 2.38125,1.190624 2.38127,0 2.38127,4.762501 2.38127,7.143735 0,2.381251 -1.19064,7.143751 -3.57188,7.143751 -1.19062,0 -2.38125,1.190625 -2.38125,2.38125 h 9.52499 9.52501 c 0,-1.190625 -1.19066,-2.38125 -2.38125,-2.38125 -2.38128,0 -3.57188,-4.762501 -3.57188,-7.143751 0,-2.38125 0,-7.143735 2.38124,-7.143735 1.19064,0 2.38128,0 2.38128,-1.190624 0,-1.19061 -1.19063,-1.19061 -2.38128,-1.19061 h -2.38124 l 2.38124,-7.14375 h -1.19061 -1.19064 -2.38125 c 0,0 -0.28063,-0.910005 0,-1.190625 0.28062,-0.280635 0.82395,-0.151875 1.19065,0 0.51851,0.214785 1.19058,1.190625 1.19058,1.190625 v -4.7625 c 0,0 -0.67207,0.975825 -1.19058,1.19061 -0.3667,0.151875 -0.91003,0.280635 -1.19065,0 -0.56127,-0.561255 0,-2.38125 0,-2.38125 h -1.19062 z"
       id="path4586-5-7-3-5-0-6-8-0-4"
       inkscape:connector-curvature="0"
       inkscape:export-xdpi="300"
       inkscape:export-ydpi="300" />
    <path
       id="path4586-5-7-3"
       style="display:inline;fill:#ff1569;fill-opacity:1;stroke:none;stroke-width:0.0992187px;stroke-linecap:butt;stroke-linejoin:miter;stroke-opacity:1"
       d="m 70.19921,66.18874 c -1.96488,4.05e-4 -3.979965,1.88946 -5.133615,4.912485 -0.120942,-0.04014 -0.247542,-0.0606 -0.37497,-0.0606 -0.657564,0 -1.190625,0.533061 -1.190625,1.190625 0,0.657564 0.533061,1.190625 1.190625,1.190625 0.657564,0 1.190625,-0.533061 1.190625,-1.190625 -2.5e-5,-0.336053 -0.142063,-0.656445 -0.391065,-0.88212 3.099165,-3.03354 5.83479,-1.251075 6.34419,3.26337 H 68.2625 c -1.190625,0 -2.38125,0 -2.38125,1.190625 0,1.190625 1.190625,1.190625 2.38125,1.190625 2.38125,0 2.38125,2.38125 2.38125,4.7625 0,2.38125 -1.190625,4.7625 -3.571875,4.7625 -1.190625,0 -2.38125,1.19063 -2.38125,2.38125 h 9.525 V 69.85 C 73.179545,67.295995 71.70413,66.18847 70.19921,66.188785 Z m 8.03283,0 c 1.96488,4.05e-4 3.979965,1.88946 5.133615,4.912485 0.120942,-0.04014 0.247542,-0.0606 0.37497,-0.0606 0.657564,0 1.190625,0.533061 1.190625,1.190625 0,0.657564 -0.533061,1.190625 -1.190625,1.190625 -0.657564,0 -1.190625,-0.533061 -1.190625,-1.190625 2.5e-5,-0.336053 0.142063,-0.656445 0.391065,-0.88212 -3.099165,-3.03354 -5.83479,-1.251075 -6.34419,3.26337 h 3.571875 c 1.190625,0 2.38125,0 2.38125,1.190625 0,1.190625 -1.190625,1.190625 -2.38125,1.190625 -2.38125,0 -2.38125,2.38125 -2.38125,4.7625 0,2.38125 1.190625,4.7625 3.571875,4.7625 1.190625,0 2.38125,1.19063 2.38125,2.38125 h -9.525 V 69.85 c 1.03608,-2.554005 2.511495,-3.66153 4.016415,-3.661215 z"
       sodipodi:nodetypes="cccsscccsssssccccc"
       inkscape:path-effect="#path-effect1179"
       inkscape:original-d="m 70.19921,66.18874 c -1.96488,4.05e-4 -3.979965,1.88946 -5.133615,4.912485 -0.120942,-0.04014 -0.247542,-0.0606 -0.37497,-0.0606 -0.657564,0 -1.190625,0.533061 -1.190625,1.190625 0,0.657564 0.533061,1.190625 1.190625,1.190625 0.657564,0 1.190625,-0.533061 1.190625,-1.190625 -2.5e-5,-0.336053 -0.142063,-0.656445 -0.391065,-0.88212 3.099165,-3.03354 5.83479,-1.251075 6.34419,3.26337 H 68.2625 c -1.190625,0 -2.38125,0 -2.38125,1.190625 0,1.190625 1.190625,1.190625 2.38125,1.190625 2.38125,0 2.38125,2.38125 2.38125,4.7625 0,2.38125 -1.190625,4.7625 -3.571875,4.7625 -1.190625,0 -2.38125,1.19063 -2.38125,2.38125 h 9.525 c 0,-9.525 0,-9.525 0,-19.05 -1.03608,-2.554005 -2.511495,-3.66153 -4.016415,-3.661215 z"
       transform="translate(14.684375)"
       inkscape:export-xdpi="300"
       inkscape:export-ydpi="300" />
    <path
       style="display:inline;fill:#ff1569;fill-opacity:1;stroke:none;stroke-width:0.0992187px;stroke-linecap:butt;stroke-linejoin:miter;stroke-opacity:1"
       d="m 136.525,59.729682 c -0.65757,0 -1.19064,0.53307 -1.19064,1.190625 0,0.331515 0.1359,0.716175 0.35445,1.016415 -0.43053,0.15969 -0.84812,0.430095 -1.22222,0.76953 h -2.70409 l -1.19063,1.190625 c 1.19063,1.190625 2.38126,4.7625 2.38126,5.953125 h -2.38126 c -1.19064,0 -2.38126,0 -2.38126,1.190625 0,1.190624 1.19063,1.190624 2.38126,1.190624 2.38126,0 2.38126,4.762501 2.38126,7.14375 0,2.38125 -1.19063,7.14375 -3.57188,7.14375 C 128.19063,86.518751 127,87.709381 127,88.9 h 9.525 9.525 c 0,-1.190619 -1.19063,-2.381249 -2.38125,-2.381249 -2.38127,0 -3.57188,-4.7625 -3.57188,-7.14375 0,-2.381249 0,-7.14375 2.38125,-7.14375 1.19063,0 2.38125,0 2.38125,-1.190624 0,-1.190625 -1.19062,-1.190625 -2.38125,-1.190625 h -2.38125 c 0,-1.190625 1.19063,-4.7625 2.38125,-5.953125 l -1.19062,-1.190625 h -2.70412 c -0.3741,-0.339435 -0.79167,-0.60984 -1.22219,-0.76953 0.21861,-0.30024 0.35442,-0.6849 0.35442,-1.016415 0,-0.657555 -0.53305,-1.190625 -1.19061,-1.190625 z"
       id="path2152-1-9-0-3"
       inkscape:connector-curvature="0"
       inkscape:export-xdpi="300"
       inkscape:export-ydpi="300" />
    <path
       style="display:inline;fill:#ff1569;fill-opacity:1;stroke:none;stroke-width:0.0992187px;stroke-linecap:butt;stroke-linejoin:miter;stroke-opacity:1"
       d="m 160.13907,62.706236 1.19062,1.68672 c 3.86872,0.05535 5.95312,10.858215 5.95312,14.98203 0,2.381265 -1.78594,2.381265 -1.78594,4.762514 0,1.190611 1.19063,2.38125 3.57188,2.38125 1.19062,0 2.38125,1.19063 2.38125,2.38125 h -9.525 -9.525 c 0,-1.19062 1.19062,-2.38125 2.38127,-2.38125 2.38125,0 3.57186,-1.19062 3.57186,-2.38125 0,-2.381249 -1.78593,-2.381249 -1.78593,-4.762514 0,-1.190611 3.34846,-7.968001 4.09915,-10.16604 l -3.04534,0.1269 c -0.17105,0.38931 -1.57647,1.612365 -2.22137,0.495315 -1.05384,-1.82529 3.54881,-5.438235 3.54881,-5.438235 v -1.68672 z"
       id="path4586-5-7-0-0-1-9-2-8-0"
       inkscape:connector-curvature="0"
       sodipodi:nodetypes="ccccscccscscccccc"
       inkscape:export-xdpi="300"
       inkscape:export-ydpi="300" />
    <path
       style="display:inline;fill:#ff1569;fill-opacity:1;stroke:none;stroke-width:0.0992187px;stroke-linecap:butt;stroke-linejoin:miter;stroke-opacity:1"
       d="m 113.10937,56.75314 c 0,0 0.56126,1.819995 0,2.38125 -0.28063,0.280635 -0.82396,0.151875 -1.19062,0 -0.51855,-0.2148 -1.19063,-1.19061 -1.19063,-1.19061 v 4.7625 c 0,0 0.67206,-0.97584 1.19063,-1.190625 0.36666,-0.151875 0.90999,-0.280635 1.19062,0 0.28062,0.28062 0,1.190625 0,1.190625 h -2.38125 -1.19064 -1.19062 l 2.38126,7.14375 h -2.38126 c -1.19066,0 -2.38125,0 -2.38125,1.19061 0,1.190625 1.19062,1.190625 2.38125,1.190625 2.38126,0 2.38126,4.7625 2.38126,7.143735 0,2.38125 -1.19064,7.14375 -3.57187,7.14375 -1.19063,0 -2.38125,1.19063 -2.38125,2.38125 h 9.52498 9.52502 c 0,-1.19062 -1.19065,-2.38125 -2.38125,-2.38125 -2.38128,0 -3.57188,-4.7625 -3.57188,-7.14375 0,-2.38125 0,-7.143735 2.38124,-7.143735 1.19064,0 2.38128,0 2.38128,-1.190625 0,-1.19061 -1.19063,-1.19061 -2.38128,-1.19061 h -2.38124 l 2.38124,-7.14375 h -1.19061 -1.19064 -2.38125 c 0,0 -0.28064,-0.910005 0,-1.190625 0.28062,-0.280635 0.82395,-0.151875 1.19065,0 0.51851,0.214785 1.19058,1.190625 1.19058,1.190625 v -4.7625 c 0,0 -0.67207,0.975825 -1.19058,1.19061 -0.3667,0.151875 -0.91003,0.280635 -1.19065,0 -0.56127,-0.561255 0,-2.38125 0,-2.38125 h -1.19063 z"
       id="path4586-5-7-3-5-0-6-8-0-4-4"
       inkscape:connector-curvature="0"
       inkscape:export-xdpi="300"
       inkscape:export-ydpi="300" />
  </g>
</svg>
